<svg width="87" height="30" viewBox="0 0 87 30" fill="none" xmlns="http://www.w3.org/2000/svg">
<path d="M1.80534 26.0543C-0.630277 26.3963 -0.573115 19.111 1.80534 19.7385C16.7626 23.6844 85.834 14.5436 82.0999 15.7911C77.377 17.369 41.1657 20.528 1.80534 26.0543Z" fill="#DE0101"/>
<path d="M2.3913 6.967C2.37356 6.76396 2.33806 6.58629 2.28482 6.43401C2.24933 6.25635 2.20496 6.06599 2.15172 5.86294C2.06299 5.55838 1.98313 5.22843 1.91214 4.8731C1.84116 4.51777 1.80566 4.09898 1.80566 3.61675C1.84116 3.36294 1.88552 3.18528 1.93876 3.08376C1.992 2.95685 2.04524 2.85533 2.09848 2.77919L2.20496 2.09391H2.60426C2.74623 2.11929 2.88821 2.13198 3.03018 2.13198C3.1899 2.13198 3.34075 2.13198 3.48272 2.13198C4.15709 2.13198 4.84921 2.09391 5.55907 2.01777C6.26894 1.94162 6.99655 1.85279 7.74191 1.75127C8.55825 1.59898 9.43671 1.48477 10.3773 1.40863C10.466 1.12944 10.5193 0.951777 10.537 0.875634C10.5725 0.799492 10.608 0.71066 10.6435 0.609137L10.9363 0.380711C11.3445 0.35533 11.6284 0.431472 11.7881 0.609137C11.9479 0.761421 12.0721 0.913706 12.1608 1.06599C12.6222 1.01523 13.0925 0.951777 13.5717 0.875634C14.0508 0.774112 14.5477 0.672589 15.0624 0.571066C15.7723 0.444162 16.491 0.317259 17.2186 0.190355C17.9462 0.0634518 18.6561 0 19.3482 0C19.6499 0 19.9338 0.0126904 20.2 0.0380711C20.4662 0.0634518 20.7236 0.101523 20.972 0.152284L21.2914 0.494924C21.3624 0.672589 21.4512 0.837563 21.5576 0.989848C21.6641 1.14213 21.7884 1.29442 21.9303 1.4467C22.1965 1.75127 22.4539 2.13198 22.7023 2.58883C22.9685 3.04569 23.0661 3.71827 22.9951 4.6066L22.862 4.98731C22.791 5.08883 22.7023 5.19036 22.5958 5.29188L22.3296 5.7868H22.0368C21.8593 5.7868 21.7262 5.81218 21.6375 5.86294C21.5488 5.88832 21.4423 5.93909 21.3181 6.01523C21.2471 6.06599 21.1672 6.11675 21.0785 6.16751C20.9898 6.19289 20.8921 6.23096 20.7857 6.28173C20.5905 6.25635 20.4396 6.24365 20.3331 6.24365C20.2267 6.24365 20.1024 6.24365 19.9605 6.24365C19.4281 6.24365 18.8513 6.29442 18.2302 6.39594C17.609 6.49746 17.0056 6.61167 16.42 6.73858C15.9941 6.81472 15.5859 6.89086 15.1955 6.967C14.8051 7.01777 14.4501 7.06853 14.1307 7.11929C13.9532 7.77919 13.7935 8.36294 13.6515 8.87056C13.5096 9.37817 13.3587 9.88579 13.199 10.3934C13.0393 10.901 12.8884 11.4213 12.7465 11.9543C12.6045 12.4619 12.4714 13.033 12.3472 13.6675C12.1342 14.1244 11.9567 14.5685 11.8148 15C11.6728 15.4061 11.5574 15.8756 11.4687 16.4086C11.2025 16.8401 11.0073 17.3096 10.8831 17.8173C10.7766 18.3249 10.679 18.7563 10.5902 19.1117L10.4838 19.6827C10.3595 19.8604 10.2797 20 10.2442 20.1015C10.2264 20.203 10.1821 20.3173 10.1111 20.4442C10.0578 20.7741 9.98685 21.0914 9.89812 21.3959C9.86263 21.5228 9.82713 21.6624 9.79164 21.8147C9.75615 21.9416 9.74727 22.0431 9.76502 22.1193C9.72953 22.3985 9.67629 22.6142 9.6053 22.7665C9.6053 22.9188 9.59643 23.0711 9.57868 23.2234C9.56094 23.3756 9.54319 23.5279 9.52544 23.6802C9.48995 23.8579 9.46333 24.0228 9.44558 24.1751C9.42784 24.302 9.43671 24.4289 9.4722 24.5558C9.52544 24.6574 9.57868 24.7589 9.63192 24.8604C9.68516 24.9619 9.72953 25.0888 9.76502 25.2411C9.80051 25.2919 9.84488 25.3299 9.89812 25.3553C9.95136 25.3807 9.99573 25.4188 10.0312 25.4695C10.1732 25.6472 10.3063 25.7487 10.4305 25.7741L10.6967 26.231C10.8032 27.1447 10.7056 27.8553 10.4039 28.3629C10.0845 28.9467 9.55206 29.2386 8.8067 29.2386L8.43403 29.2005C8.3098 29.0228 8.23881 28.9086 8.22107 28.8579C8.06135 28.7563 7.92825 28.6675 7.82177 28.5914C7.71529 28.5406 7.61768 28.4264 7.52895 28.2487C7.49345 28.198 7.44909 28.1726 7.39585 28.1726C7.34261 28.1472 7.29824 28.1091 7.26275 28.0584C7.08528 27.9822 6.94331 27.8934 6.83683 27.7919L6.54401 27.5635C6.56176 27.3096 6.57063 27.132 6.57063 27.0305C6.42866 26.7513 6.3133 26.4467 6.22457 26.1168C6.15358 25.7868 6.09147 25.4442 6.03823 25.0888C5.98499 24.8096 5.93175 24.5558 5.87851 24.3274C5.84302 24.099 5.78091 23.8959 5.69217 23.7183C5.65668 21.9416 5.77203 20.4569 6.03823 19.264C6.30443 18.0457 6.59725 16.8655 6.91669 15.7233C7.09416 15.1142 7.26275 14.4924 7.42247 13.8579C7.58219 13.2233 7.72416 12.5761 7.84839 11.9162L8.14121 11.4975C8.26543 11.3452 8.34529 11.2563 8.38079 11.231C8.38079 10.901 8.42515 10.5838 8.51389 10.2792C8.60262 9.94924 8.70022 9.61929 8.8067 9.28934C8.87769 9.08629 8.9398 8.88325 8.99304 8.6802C9.06403 8.47716 9.1084 8.29949 9.12614 8.14721C9.00192 8.14721 8.88656 8.1599 8.78008 8.18528C8.69135 8.18528 8.59374 8.19797 8.48727 8.22335C8.25656 8.29949 8.03473 8.33756 7.82177 8.33756C7.66205 8.33756 7.54669 8.32487 7.47571 8.29949C7.33373 8.40102 7.20064 8.46447 7.07641 8.48985C6.95218 8.48985 6.82796 8.48985 6.70373 8.48985H6.38429H6.06485C5.85189 8.48985 5.6833 8.52792 5.55907 8.60406C5.31062 8.60406 5.1509 8.60406 5.07991 8.60406C5.00893 8.60406 4.92907 8.60406 4.84034 8.60406H4.5209H4.20146C4.05948 8.60406 3.89976 8.59137 3.7223 8.56599C3.54483 8.51523 3.35849 8.41371 3.16328 8.26142L2.97694 7.95685C2.87046 7.67766 2.77285 7.52538 2.68412 7.5L2.3913 7.38579V6.967Z" fill="#333333"/>
<path d="M16.3135 24.8223L16.6596 24.4416L16.6862 23.6421C17.1299 22.0939 17.5824 20.6091 18.0438 19.1878C18.523 17.7665 19.0199 16.3071 19.5345 14.8096C19.6943 14.3274 19.854 13.8452 20.0137 13.3629C20.1912 12.8807 20.3598 12.3858 20.5195 11.8782C20.5017 11.7766 20.4929 11.6751 20.4929 11.5736C20.4929 11.4467 20.5106 11.3071 20.5461 11.1548C20.7945 10.6472 20.9898 10.1904 21.1317 9.78426C21.2914 9.37817 21.4423 8.95939 21.5843 8.52792C21.744 8.0203 21.9126 7.51269 22.09 7.00508C22.2853 6.49746 22.5248 6.00254 22.8088 5.5203L22.9951 5.13959L23.2879 5.17766C23.3589 5.1269 23.4299 5.08883 23.5009 5.06345C23.5896 5.01269 23.6961 4.98731 23.8203 4.98731L24.2995 5.10152C24.8851 4.72081 25.3998 4.17513 25.8435 3.46447C26.3049 2.72843 26.7663 1.85279 27.2277 0.837563L27.5471 0.190355L27.973 0.571066C28.0618 0.647208 28.2038 0.72335 28.399 0.799492C28.5942 0.875634 28.7983 0.964467 29.0112 1.06599C29.3839 1.19289 29.7477 1.34518 30.1026 1.52284C30.4576 1.67513 30.7326 1.89086 30.9279 2.17005L31.061 2.51269C31.0965 2.79188 31.1231 3.04569 31.1408 3.27411C31.1763 3.50254 31.2118 3.73096 31.2473 3.95939C31.3183 4.49239 31.3804 5.02538 31.4336 5.55838C31.4869 6.06599 31.5224 6.63706 31.5401 7.27157C31.6289 7.77919 31.7087 8.29949 31.7797 8.83249C31.8684 9.3401 31.9483 9.84772 32.0193 10.3553C32.108 11.0914 32.2056 11.802 32.3121 12.4873C32.4186 13.1472 32.5606 13.7817 32.738 14.3909C32.9155 14.3909 33.022 14.4036 33.0575 14.4289C33.2704 14.302 33.5189 14.2259 33.8028 14.2005L34.1489 14.1624L34.2554 14.6193C34.2908 14.6954 34.3352 14.7716 34.3885 14.8477C34.4417 14.9239 34.5038 15 34.5748 15.0761C34.8587 15.1015 35.0628 15.1904 35.187 15.3426C35.329 15.4695 35.4444 15.5964 35.5331 15.7233C35.5686 15.7741 35.613 15.8376 35.6662 15.9137C35.7194 15.9645 35.7638 16.0025 35.7993 16.0279L36.2785 16.2944L36.0123 17.0178C35.8171 17.5508 35.5154 18.0711 35.1072 18.5787C34.7168 19.0863 34.2731 19.5051 33.7762 19.835C33.8117 20.0127 33.8294 20.1777 33.8294 20.3299C33.8472 20.4822 33.8738 20.6599 33.9093 20.8629C33.9803 21.3706 34.0335 21.9036 34.069 22.4619C34.1223 22.9949 34.1223 23.5533 34.069 24.1371C33.8915 24.797 33.6786 25.3934 33.4301 25.9264C33.1994 26.434 32.9155 26.9036 32.5783 27.335C32.2589 27.7411 31.8951 28.0838 31.4869 28.3629C31.0787 28.6168 30.6528 28.7563 30.2091 28.7817C29.9607 28.7056 29.7743 28.6168 29.6501 28.5152C29.5436 28.4137 29.446 28.3122 29.3573 28.2107C29.2153 28.0584 29.1 27.9569 29.0112 27.9061L28.6652 27.6777L28.7716 27.1066C28.8249 26.9036 28.816 26.7259 28.745 26.5736C28.6918 26.4213 28.5676 26.2183 28.3723 25.9645C28.3014 25.8883 28.2392 25.8122 28.186 25.736C28.1328 25.6345 28.0707 25.533 27.9997 25.4315L27.4673 24.5558L28.3457 24.2132C28.8781 24.0102 29.2331 23.7563 29.4105 23.4518C29.588 23.1218 29.659 22.5508 29.6235 21.7386C29.1798 21.6117 28.816 21.599 28.5321 21.7005C28.2481 21.7766 27.9642 21.8655 27.6802 21.967C27.2721 22.1193 26.8728 22.2589 26.4823 22.3858C26.0919 22.4873 25.666 22.5381 25.2046 22.5381C24.9029 22.5381 24.5834 22.5 24.2463 22.4239L23.9534 22.3858L23.8736 21.967C23.8736 21.9162 23.847 21.8655 23.7937 21.8147C23.7582 21.7386 23.7227 21.6751 23.6872 21.6244C23.5985 21.4721 23.492 21.269 23.3678 21.0152C23.2436 20.7614 23.217 20.4442 23.2879 20.0635C23.1637 19.7843 23.0927 19.4924 23.075 19.1878C23.004 19.3909 22.9419 19.5939 22.8886 19.797C22.8532 19.9746 22.8177 20.1523 22.7822 20.3299L22.6757 20.8249L22.3296 20.901C22.2941 20.9518 22.2586 21.0279 22.2231 21.1294C22.2054 21.231 22.2054 21.3071 22.2231 21.3579L22.3296 21.7766L22.0634 22.1193C22.0279 22.1954 21.9836 22.2589 21.9303 22.3096C21.8771 22.3604 21.8327 22.4112 21.7972 22.4619C21.7617 22.7411 21.7085 23.0076 21.6375 23.2614C21.5843 23.5152 21.5222 23.769 21.4512 24.0228C21.3624 24.4289 21.2737 24.8223 21.185 25.203C21.114 25.5838 21.0785 25.9645 21.0785 26.3452L20.972 26.8401C20.8833 27.0431 20.7679 27.1954 20.6259 27.297C20.5017 27.3985 20.3775 27.4873 20.2533 27.5635C20.0758 27.665 19.9516 27.7665 19.8806 27.868L19.8007 28.3629L19.4014 28.4391C19.1707 28.5152 19.0021 28.566 18.8957 28.5914C18.8069 28.6168 18.7004 28.6294 18.5762 28.6294L18.2302 28.5914C18.0172 28.2868 17.8397 28.0584 17.6978 27.9061C17.5735 27.7284 17.4227 27.5761 17.2452 27.4492L17.0855 27.1447C17.0145 26.9416 16.9701 26.764 16.9524 26.6117C16.9347 26.434 16.908 26.2563 16.8725 26.0787C16.837 25.7487 16.7838 25.5203 16.7128 25.3934L16.3135 24.8223ZM24.8053 14.9239C24.5568 15.4315 24.3172 15.9645 24.0865 16.5228C24.2108 16.4975 24.3261 16.4848 24.4326 16.4848C24.5568 16.4848 24.6811 16.4721 24.8053 16.4467C25.4264 16.3959 26.0032 16.3325 26.5356 16.2563C27.068 16.1802 27.6447 16.0533 28.2659 15.8756C28.1239 14.9365 27.9642 13.9848 27.7867 13.0203C27.627 12.0305 27.4495 11.0406 27.2543 10.0508L27.1212 10.4315C26.6775 11.1168 26.2516 11.8528 25.8435 12.6396C25.4353 13.4264 25.0981 14.1751 24.8319 14.8858L24.8053 14.9239Z" fill="#333333"/>
<path d="M35.3734 6.967C35.3556 6.76396 35.3201 6.58629 35.2669 6.43401C35.2314 6.25635 35.187 6.06599 35.1338 5.86294C35.0451 5.55838 34.9652 5.22843 34.8942 4.8731C34.8232 4.51777 34.7878 4.09898 34.7878 3.61675C34.8232 3.36294 34.8676 3.18528 34.9208 3.08376C34.9741 2.95685 35.0273 2.85533 35.0806 2.77919L35.187 2.09391H35.5863C35.7283 2.11929 35.8703 2.13198 36.0123 2.13198C36.172 2.13198 36.3228 2.13198 36.4648 2.13198C37.1392 2.13198 37.8313 2.09391 38.5412 2.01777C39.251 1.94162 39.9786 1.85279 40.724 1.75127C41.5403 1.59898 42.4188 1.48477 43.3594 1.40863C43.4481 1.12944 43.5013 0.951777 43.5191 0.875634C43.5546 0.799492 43.5901 0.71066 43.6256 0.609137L43.9184 0.380711C44.3266 0.35533 44.6105 0.431472 44.7702 0.609137C44.9299 0.761421 45.0542 0.913706 45.1429 1.06599C45.6043 1.01523 46.0746 0.951777 46.5538 0.875634C47.0329 0.774112 47.5298 0.672589 48.0445 0.571066C48.7543 0.444162 49.4731 0.317259 50.2007 0.190355C50.9283 0.0634518 51.6382 0 52.3303 0C52.632 0 52.9159 0.0126904 53.1821 0.0380711C53.4483 0.0634518 53.7056 0.101523 53.9541 0.152284L54.2735 0.494924C54.3445 0.672589 54.4333 0.837563 54.5397 0.989848C54.6462 1.14213 54.7704 1.29442 54.9124 1.4467C55.1786 1.75127 55.4359 2.13198 55.6844 2.58883C55.9506 3.04569 56.0482 3.71827 55.9772 4.6066L55.8441 4.98731C55.7731 5.08883 55.6844 5.19036 55.5779 5.29188L55.3117 5.7868H55.0189C54.8414 5.7868 54.7083 5.81218 54.6196 5.86294C54.5309 5.88832 54.4244 5.93909 54.3002 6.01523C54.2292 6.06599 54.1493 6.11675 54.0606 6.16751C53.9718 6.19289 53.8742 6.23096 53.7678 6.28173C53.5725 6.25635 53.4217 6.24365 53.3152 6.24365C53.2087 6.24365 53.0845 6.24365 52.9425 6.24365C52.4101 6.24365 51.8334 6.29442 51.2122 6.39594C50.5911 6.49746 49.9877 6.61167 49.4021 6.73858C48.9762 6.81472 48.568 6.89086 48.1776 6.967C47.7871 7.01777 47.4322 7.06853 47.1128 7.11929C46.9353 7.77919 46.7756 8.36294 46.6336 8.87056C46.4916 9.37817 46.3408 9.88579 46.1811 10.3934C46.0214 10.901 45.8705 11.4213 45.7285 11.9543C45.5866 12.4619 45.4535 13.033 45.3292 13.6675C45.1163 14.1244 44.9388 14.5685 44.7968 15C44.6549 15.4061 44.5395 15.8756 44.4508 16.4086C44.1846 16.8401 43.9894 17.3096 43.8651 17.8173C43.7587 18.3249 43.6611 18.7563 43.5723 19.1117L43.4658 19.6827C43.3416 19.8604 43.2618 20 43.2263 20.1015C43.2085 20.203 43.1642 20.3173 43.0932 20.4442C43.0399 20.7741 42.9689 21.0914 42.8802 21.3959C42.8447 21.5228 42.8092 21.6624 42.7737 21.8147C42.7382 21.9416 42.7294 22.0431 42.7471 22.1193C42.7116 22.3985 42.6584 22.6142 42.5874 22.7665C42.5874 22.9188 42.5785 23.0711 42.5608 23.2234C42.543 23.3756 42.5253 23.5279 42.5075 23.6802C42.472 23.8579 42.4454 24.0228 42.4277 24.1751C42.4099 24.302 42.4188 24.4289 42.4543 24.5558C42.5075 24.6574 42.5608 24.7589 42.614 24.8604C42.6672 24.9619 42.7116 25.0888 42.7471 25.2411C42.7826 25.2919 42.827 25.3299 42.8802 25.3553C42.9334 25.3807 42.9778 25.4188 43.0133 25.4695C43.1553 25.6472 43.2884 25.7487 43.4126 25.7741L43.6788 26.231C43.7853 27.1447 43.6877 27.8553 43.386 28.3629C43.0665 28.9467 42.5341 29.2386 41.7888 29.2386L41.4161 29.2005C41.2919 29.0228 41.2209 28.9086 41.2032 28.8579C41.0434 28.7563 40.9103 28.6675 40.8039 28.5914C40.6974 28.5406 40.5998 28.4264 40.511 28.2487C40.4755 28.198 40.4312 28.1726 40.3779 28.1726C40.3247 28.1472 40.2803 28.1091 40.2448 28.0584C40.0674 27.9822 39.9254 27.8934 39.8189 27.7919L39.5261 27.5635C39.5438 27.3096 39.5527 27.132 39.5527 27.0305C39.4107 26.7513 39.2954 26.4467 39.2067 26.1168C39.1357 25.7868 39.0736 25.4442 39.0203 25.0888C38.9671 24.8096 38.9138 24.5558 38.8606 24.3274C38.8251 24.099 38.763 23.8959 38.6743 23.7183C38.6388 21.9416 38.7541 20.4569 39.0203 19.264C39.2865 18.0457 39.5793 16.8655 39.8988 15.7233C40.0762 15.1142 40.2448 14.4924 40.4046 13.8579C40.5643 13.2233 40.7062 12.5761 40.8305 11.9162L41.1233 11.4975C41.2475 11.3452 41.3274 11.2563 41.3629 11.231C41.3629 10.901 41.4072 10.5838 41.496 10.2792C41.5847 9.94924 41.6823 9.61929 41.7888 9.28934C41.8598 9.08629 41.9219 8.88325 41.9751 8.6802C42.0461 8.47716 42.0905 8.29949 42.1082 8.14721C41.984 8.14721 41.8686 8.1599 41.7622 8.18528C41.6734 8.18528 41.5758 8.19797 41.4694 8.22335C41.2386 8.29949 41.0168 8.33756 40.8039 8.33756C40.6441 8.33756 40.5288 8.32487 40.4578 8.29949C40.3158 8.40102 40.1827 8.46447 40.0585 8.48985C39.9343 8.48985 39.81 8.48985 39.6858 8.48985H39.3664H39.0469C38.834 8.48985 38.6654 8.52792 38.5412 8.60406C38.2927 8.60406 38.133 8.60406 38.062 8.60406C37.991 8.60406 37.9112 8.60406 37.8224 8.60406H37.503H37.1835C37.0416 8.60406 36.8819 8.59137 36.7044 8.56599C36.5269 8.51523 36.3406 8.41371 36.1454 8.26142L35.959 7.95685C35.8525 7.67766 35.7549 7.52538 35.6662 7.5L35.3734 7.38579V6.967Z" fill="#333333"/>
<path d="M51.931 6.967C51.9132 6.76396 51.8777 6.58629 51.8245 6.43401C51.789 6.25635 51.7446 6.06599 51.6914 5.86294C51.6027 5.55838 51.5228 5.22843 51.4518 4.8731C51.3808 4.51777 51.3453 4.09898 51.3453 3.61675C51.3808 3.36294 51.4252 3.18528 51.4784 3.08376C51.5317 2.95685 51.5849 2.85533 51.6382 2.77919L51.7446 2.09391H52.1439C52.2859 2.11929 52.4279 2.13198 52.5699 2.13198C52.7296 2.13198 52.8804 2.13198 53.0224 2.13198C53.6968 2.13198 54.3889 2.09391 55.0988 2.01777C55.8086 1.94162 56.5362 1.85279 57.2816 1.75127C58.0979 1.59898 58.9764 1.48477 59.917 1.40863C60.0057 1.12944 60.0589 0.951777 60.0767 0.875634C60.1122 0.799492 60.1477 0.71066 60.1832 0.609137L60.476 0.380711C60.8841 0.35533 61.1681 0.431472 61.3278 0.609137C61.4875 0.761421 61.6118 0.913706 61.7005 1.06599C62.1619 1.01523 62.6322 0.951777 63.1114 0.875634C63.5905 0.774112 64.0874 0.672589 64.6021 0.571066C65.3119 0.444162 66.0307 0.317259 66.7583 0.190355C67.4859 0.0634518 68.1958 0 68.8879 0C69.1896 0 69.4735 0.0126904 69.7397 0.0380711C70.0059 0.0634518 70.2632 0.101523 70.5117 0.152284L70.8311 0.494924C70.9021 0.672589 70.9908 0.837563 71.0973 0.989848C71.2038 1.14213 71.328 1.29442 71.47 1.4467C71.7362 1.75127 71.9935 2.13198 72.242 2.58883C72.5082 3.04569 72.6058 3.71827 72.5348 4.6066L72.4017 4.98731C72.3307 5.08883 72.242 5.19036 72.1355 5.29188L71.8693 5.7868H71.5765C71.399 5.7868 71.2659 5.81218 71.1772 5.86294C71.0885 5.88832 70.982 5.93909 70.8577 6.01523C70.7868 6.06599 70.7069 6.11675 70.6182 6.16751C70.5294 6.19289 70.4318 6.23096 70.3253 6.28173C70.1301 6.25635 69.9793 6.24365 69.8728 6.24365C69.7663 6.24365 69.6421 6.24365 69.5001 6.24365C68.9677 6.24365 68.391 6.29442 67.7698 6.39594C67.1487 6.49746 66.5453 6.61167 65.9597 6.73858C65.5338 6.81472 65.1256 6.89086 64.7352 6.967C64.3447 7.01777 63.9898 7.06853 63.6704 7.11929C63.4929 7.77919 63.3332 8.36294 63.1912 8.87056C63.0492 9.37817 62.8984 9.88579 62.7387 10.3934C62.579 10.901 62.4281 11.4213 62.2861 11.9543C62.1442 12.4619 62.0111 13.033 61.8868 13.6675C61.6739 14.1244 61.4964 14.5685 61.3544 15C61.2125 15.4061 61.0971 15.8756 61.0084 16.4086C60.7422 16.8401 60.547 17.3096 60.4227 17.8173C60.3163 18.3249 60.2187 18.7563 60.1299 19.1117L60.0234 19.6827C59.8992 19.8604 59.8194 20 59.7839 20.1015C59.7661 20.203 59.7217 20.3173 59.6508 20.4442C59.5975 20.7741 59.5265 21.0914 59.4378 21.3959C59.4023 21.5228 59.3668 21.6624 59.3313 21.8147C59.2958 21.9416 59.287 22.0431 59.3047 22.1193C59.2692 22.3985 59.216 22.6142 59.145 22.7665C59.145 22.9188 59.1361 23.0711 59.1184 23.2234C59.1006 23.3756 59.0829 23.5279 59.0651 23.6802C59.0296 23.8579 59.003 24.0228 58.9853 24.1751C58.9675 24.302 58.9764 24.4289 59.0119 24.5558C59.0651 24.6574 59.1184 24.7589 59.1716 24.8604C59.2248 24.9619 59.2692 25.0888 59.3047 25.2411C59.3402 25.2919 59.3846 25.3299 59.4378 25.3553C59.491 25.3807 59.5354 25.4188 59.5709 25.4695C59.7129 25.6472 59.846 25.7487 59.9702 25.7741L60.2364 26.231C60.3429 27.1447 60.2453 27.8553 59.9436 28.3629C59.6241 28.9467 59.0917 29.2386 58.3464 29.2386L57.9737 29.2005C57.8495 29.0228 57.7785 28.9086 57.7607 28.8579C57.601 28.7563 57.4679 28.6675 57.3614 28.5914C57.255 28.5406 57.1574 28.4264 57.0686 28.2487C57.0331 28.198 56.9888 28.1726 56.9355 28.1726C56.8823 28.1472 56.8379 28.1091 56.8024 28.0584C56.625 27.9822 56.483 27.8934 56.3765 27.7919L56.0837 27.5635C56.1014 27.3096 56.1103 27.132 56.1103 27.0305C55.9683 26.7513 55.853 26.4467 55.7643 26.1168C55.6933 25.7868 55.6311 25.4442 55.5779 25.0888C55.5247 24.8096 55.4714 24.5558 55.4182 24.3274C55.3827 24.099 55.3206 23.8959 55.2319 23.7183C55.1964 21.9416 55.3117 20.4569 55.5779 19.264C55.8441 18.0457 56.1369 16.8655 56.4564 15.7233C56.6338 15.1142 56.8024 14.4924 56.9621 13.8579C57.1219 13.2233 57.2638 12.5761 57.3881 11.9162L57.6809 11.4975C57.8051 11.3452 57.885 11.2563 57.9205 11.231C57.9205 10.901 57.9648 10.5838 58.0536 10.2792C58.1423 9.94924 58.2399 9.61929 58.3464 9.28934C58.4174 9.08629 58.4795 8.88325 58.5327 8.6802C58.6037 8.47716 58.6481 8.29949 58.6658 8.14721C58.5416 8.14721 58.4262 8.1599 58.3198 8.18528C58.231 8.18528 58.1334 8.19797 58.0269 8.22335C57.7962 8.29949 57.5744 8.33756 57.3614 8.33756C57.2017 8.33756 57.0864 8.32487 57.0154 8.29949C56.8734 8.40102 56.7403 8.46447 56.6161 8.48985C56.4919 8.48985 56.3676 8.48985 56.2434 8.48985H55.924H55.6045C55.3916 8.48985 55.223 8.52792 55.0988 8.60406C54.8503 8.60406 54.6906 8.60406 54.6196 8.60406C54.5486 8.60406 54.4687 8.60406 54.38 8.60406H54.0606H53.7411C53.5992 8.60406 53.4394 8.59137 53.262 8.56599C53.0845 8.51523 52.8982 8.41371 52.703 8.26142L52.5166 7.95685C52.4101 7.67766 52.3125 7.52538 52.2238 7.5L51.931 7.38579V6.967Z" fill="#333333"/>
<path d="M67.69 25.0888C67.6367 24.3274 67.6279 23.6421 67.6634 23.033C67.6811 22.4239 67.7432 21.8401 67.8497 21.2817C67.9384 20.7234 68.0627 20.1904 68.2224 19.6827C68.3998 19.1751 68.5951 18.6294 68.808 18.0457C69.0565 17.9188 69.2783 17.7538 69.4735 17.5508C69.6687 17.3223 69.8551 17.1066 70.0325 16.9036C70.21 16.6751 70.3786 16.4848 70.5383 16.3325C70.7158 16.1548 70.8844 16.0533 71.0441 16.0279L71.3103 15.7995C71.6652 15.2157 72.1 14.6827 72.6147 14.2005C73.1293 13.6929 73.6617 13.2107 74.2119 12.7538C74.6733 12.3731 75.1258 11.9924 75.5695 11.6117C76.0131 11.2056 76.4213 10.7487 76.794 10.2411C76.9715 10.2665 77.1223 10.2157 77.2465 10.0888C77.3353 9.91117 77.3708 9.72081 77.353 9.51777C77.4062 9.467 77.4506 9.41624 77.4861 9.36548C77.5393 9.28934 77.5926 9.22589 77.6458 9.17513C77.7878 8.99746 77.983 8.8198 78.2315 8.64213C78.4977 8.43909 78.6751 8.17259 78.7639 7.84264L79.456 6.89086L78.4977 6.92893C78.0185 6.92893 77.5039 6.967 76.9537 7.04315C76.4213 7.11929 75.9599 7.18274 75.5695 7.2335C75.25 7.28426 74.9217 7.32233 74.5845 7.34772C74.2651 7.3731 73.9013 7.39848 73.4931 7.42386C73.1559 7.11929 72.8631 6.72589 72.6147 6.24365C72.384 5.76142 72.1976 5.24112 72.0556 4.68274C71.9314 4.12437 71.8604 3.54061 71.8427 2.93147C71.8249 2.32234 71.8782 1.73858 72.0024 1.1802C72.1444 1.12944 72.2686 1.07868 72.3751 1.02792C72.4993 0.951777 72.6147 0.875634 72.7211 0.799492C72.9164 0.774112 73.0406 0.774112 73.0938 0.799492C73.1648 0.824873 73.2447 0.837563 73.3334 0.837563C74.3982 0.583756 75.2678 0.456853 75.9422 0.456853C76.6875 0.456853 77.3619 0.583756 77.9653 0.837563C78.7106 0.837563 79.4649 0.799492 80.228 0.72335C81.0088 0.647208 81.7985 0.71066 82.5971 0.913706C83.165 0.659898 83.7329 0.596447 84.3008 0.72335C84.8687 0.824873 85.3567 1.1802 85.7649 1.78934C85.8004 2.29695 85.898 2.69036 86.0577 2.96954C86.2174 3.22335 86.4304 3.41371 86.6966 3.54061C86.8563 4.42893 86.8652 5.20305 86.7232 5.86294C86.599 6.52284 86.3772 7.11929 86.0577 7.65228C85.7383 8.1599 85.3567 8.61675 84.9131 9.02284C84.4694 9.42893 84.0346 9.82234 83.6087 10.203C83.4845 10.4822 83.3336 10.7107 83.1562 10.8883C82.9787 11.066 82.8101 11.2563 82.6504 11.4594C81.9583 12.7792 81.1508 13.9086 80.228 14.8477C79.3229 15.7614 78.4001 16.6624 77.4595 17.5508C76.7851 18.2107 76.1107 18.8706 75.4364 19.5305C74.7797 20.1904 74.1409 20.901 73.5197 21.6624L73.1737 22.0812L73.4665 22.5381C73.715 22.8934 74.0166 23.0711 74.3716 23.0711C74.5668 23.0711 74.7531 23.033 74.9306 22.9569C75.1258 22.8807 75.3033 22.7919 75.463 22.6904C75.6227 22.6142 75.7647 22.5508 75.8889 22.5C76.0309 22.4239 76.1462 22.3858 76.235 22.3858L76.5278 22.4619C76.794 22.2589 77.007 22.1193 77.1667 22.0431C77.3441 21.9416 77.5216 21.8528 77.6991 21.7766C77.841 21.7259 77.9919 21.6624 78.1516 21.5863C78.3291 21.5102 78.4977 21.4086 78.6574 21.2817C79.1188 21.2817 79.5625 21.1929 79.9884 21.0152C80.4143 20.8122 80.8313 20.5964 81.2395 20.368C81.488 20.2411 81.7275 20.1142 81.9583 19.9873C82.2067 19.8604 82.4552 19.7462 82.7036 19.6447C82.7923 19.8223 82.89 19.9746 82.9964 20.1015C83.1207 20.203 83.236 20.2919 83.3425 20.368C83.5022 20.4949 83.6176 20.6091 83.6886 20.7107C83.7595 20.7868 83.8039 20.901 83.8216 21.0533L83.9281 22.3096L84.4872 21.434C84.7533 21.7893 84.8953 22.1574 84.9131 22.5381C84.9308 22.8934 84.9042 23.3629 84.8332 23.9467C84.1411 24.9365 83.2804 25.7107 82.2511 26.269C81.2395 26.8274 80.1658 27.3477 79.0301 27.8299C78.7816 27.9315 78.542 28.033 78.3113 28.1345C78.0806 28.2107 77.841 28.3122 77.5926 28.4391L77.6192 27.6396L76.9271 28.2868C76.8384 28.3883 76.7674 28.4772 76.7141 28.5533C76.6609 28.6548 76.6077 28.7563 76.5544 28.8579C76.0043 29.0355 75.5429 29.1751 75.1702 29.2766C74.8152 29.3782 74.4781 29.4797 74.1586 29.5812C73.8037 29.7081 73.4665 29.8096 73.1471 29.8858C72.8454 29.9619 72.5082 30 72.1355 30C72.0113 30 71.8871 29.9873 71.7628 29.9619C71.6563 29.9619 71.541 29.9492 71.4168 29.9239C71.3103 29.8731 71.1861 29.8223 71.0441 29.7716L70.6714 28.7817L70.1656 29.3147C69.9704 29.0863 69.7486 28.8452 69.5001 28.5914C69.2872 28.3376 69.092 28.0838 68.9145 27.8299C68.737 27.5761 68.6394 27.3223 68.6217 27.0685L68.5951 26.6117L68.2756 26.4975C68.2401 26.4467 68.2046 26.3198 68.1691 26.1168C68.1336 25.9645 68.0804 25.7868 68.0094 25.5838C67.9384 25.3807 67.8319 25.2157 67.69 25.0888Z" fill="#333333"/>
</svg>
